#define shade_width 6
#define shade_height 6
static unsigned char shade_bits[] = {
   0x00, 0x0e, 0x0e, 0x0e, 0x00, 0x00 };
